<?xml version="1.0" standalone="no"?>
<!DOCTYPE svg PUBLIC "-//W3C//DTD SVG 20010904//EN"
 "http://www.w3.org/TR/2001/REC-SVG-20010904/DTD/svg10.dtd">
<svg version="1.0" xmlns="http://www.w3.org/2000/svg"
 width="213.000000pt" height="213.000000pt" viewBox="0 0 213.000000 213.000000"
 preserveAspectRatio="xMidYMid meet">
<metadata>
Created by potrace 1.11, written by Peter Selinger 2001-2013
</metadata>
<g transform="translate(0.000000,213.000000) scale(0.100000,-0.100000)"
fill="#000000" stroke="none">
<path d="M970 1605 c-10 -12 -10 -18 0 -30 7 -8 18 -15 25 -15 7 0 18 7 25 15
10 12 10 18 0 30 -7 8 -18 15 -25 15 -7 0 -18 -7 -25 -15z"/>
<path d="M804 1596 c-77 -34 -51 -123 41 -140 36 -7 48 -32 20 -42 -15 -6 -20
-4 -64 21 -32 18 -53 9 -45 -19 10 -36 43 -56 90 -56 82 0 119 38 98 99 -7 19
-22 30 -54 41 -56 19 -72 29 -65 41 8 12 55 12 55 -1 0 -5 16 -10 35 -10 41 0
43 9 13 45 -28 31 -81 41 -124 21z"/>
<path d="M64 1587 c-2 -7 -3 -60 -2 -118 l3 -104 88 -3 87 -3 0 26 c0 24 -3
25 -55 25 -48 0 -55 2 -55 20 0 18 21 27 54 21 24 -4 46 12 46 35 0 22 -4 24
-50 24 -43 0 -50 3 -50 20 0 18 7 20 55 20 52 0 55 1 55 25 0 25 -1 25 -85 25
-62 0 -87 -4 -91 -13z"/>
<path d="M260 1480 l0 -120 30 0 30 0 1 88 0 87 26 -65 c13 -36 27 -80 31 -99
4 -29 3 -33 -11 -28 -10 4 -18 -1 -22 -13 -9 -27 2 -40 30 -40 13 0 27 -4 30
-10 11 -17 20 -11 32 20 18 47 30 36 35 -32 14 -161 93 -221 171 -129 21 26
30 30 56 25 26 -6 32 -2 50 27 l21 34 0 -38 c0 -52 28 -47 47 8 24 69 33 65
33 -18 0 -75 0 -77 25 -77 14 0 25 5 25 10 0 7 6 7 19 0 38 -20 79 -12 102 19
18 25 27 29 50 24 17 -3 35 0 44 7 12 10 15 9 15 -8 0 -11 7 -25 15 -32 13
-10 19 -10 34 4 18 17 20 17 31 -3 13 -25 27 -27 51 -5 16 14 18 13 29 -20 14
-45 43 -48 60 -7 8 20 17 27 30 24 10 -3 23 3 31 14 8 11 21 22 30 25 9 4 23
26 31 49 23 68 36 59 34 -23 -1 -68 0 -73 21 -76 16 -2 26 5 38 27 8 17 23 31
32 31 9 0 28 10 42 23 14 12 7 1 -17 -25 -56 -64 -55 -118 4 -118 28 0 49 33
58 92 5 33 16 57 37 77 28 28 39 61 20 61 -5 0 -16 -12 -26 -26 -13 -21 -19
-24 -26 -13 -5 8 -9 24 -9 37 0 26 -15 29 -28 6 -6 -11 -11 -13 -16 -5 -12 18
-54 13 -66 -8 -5 -11 -10 -35 -10 -53 -1 -18 -7 -44 -15 -58 -13 -23 -14 -20
-15 51 0 62 -3 78 -16 83 -9 4 -23 1 -31 -6 -9 -7 -25 -12 -37 -13 -15 0 -22
-7 -24 -25 -5 -43 -23 -90 -34 -90 -6 0 -8 12 -4 30 15 73 16 86 7 99 -16 24
-28 3 -35 -59 -4 -33 -12 -73 -17 -90 -20 -56 -31 -32 -29 63 3 150 12 257 21
257 5 0 9 -13 9 -28 0 -46 25 -60 108 -60 l72 0 0 89 0 89 -35 0 c-34 0 -35
-1 -35 -40 0 -39 -1 -39 -25 -28 -18 8 -25 19 -25 40 0 24 -4 28 -30 28 -27 0
-30 -3 -30 -30 0 -37 -15 -40 -24 -5 -9 36 -53 52 -87 32 -22 -12 -28 -12 -45
0 -10 8 -28 11 -39 8 -11 -3 -38 -7 -60 -8 l-40 -2 0 -85 0 -85 32 -3 32 -3 3
63 c2 50 6 63 21 66 15 3 17 -5 17 -62 l0 -66 29 0 30 0 -5 -57 c-6 -70 -23
-141 -36 -149 -6 -4 -8 22 -7 62 3 77 -14 98 -30 37 -15 -53 -34 -78 -56 -70
-17 7 -17 25 1 71 4 12 0 16 -15 16 -17 0 -22 -8 -27 -41 l-7 -40 -33 32 c-30
29 -34 39 -34 85 0 60 -20 78 -45 40 -13 -19 -13 -31 -4 -72 10 -44 9 -55 -10
-97 -12 -26 -23 -47 -24 -47 -1 0 -1 31 1 68 3 51 0 71 -11 80 -15 12 -47 7
-47 -8 0 -5 -9 -6 -21 -3 -12 3 -25 0 -29 -7 -6 -10 -14 -8 -35 8 -21 17 -31
19 -47 11 -20 -11 -22 -15 -32 -61 -7 -31 -62 -98 -80 -98 -37 0 -76 86 -76
168 0 42 0 42 38 42 20 0 50 7 66 15 15 8 39 15 52 15 23 0 24 3 24 73 0 87
-16 109 -79 111 -41 1 -81 -24 -81 -51 0 -16 51 -18 67 -2 6 6 16 8 22 4 19
-11 2 -25 -30 -25 -35 0 -75 -36 -91 -80 -5 -17 -14 -30 -19 -30 -13 0 -12 2
21 96 l29 84 -34 0 c-31 0 -35 -3 -44 -37 -6 -21 -11 -44 -11 -51 0 -27 -18
-1 -29 43 -11 45 -16 49 -58 45 -19 -1 -23 4 -23 29 0 28 -3 31 -30 31 l-30 0
0 -120z m993 -3 c2 -6 -6 -20 -19 -30 -20 -15 -24 -15 -24 -3 0 39 31 64 43
33z m177 -47 c9 -16 8 -20 -5 -20 -8 0 -15 2 -15 4 0 2 -3 11 -6 20 -9 23 13
20 26 -4z m-825 -9 c7 -12 -12 -24 -25 -16 -11 7 -4 25 10 25 5 0 11 -4 15 -9z
m650 -41 c-4 -17 -9 -29 -12 -26 -3 2 -2 19 2 36 4 17 9 29 12 26 3 -2 2 -19
-2 -36z m-730 -10 c3 -5 1 -10 -4 -10 -6 0 -11 5 -11 10 0 6 2 10 4 10 3 0 8
-4 11 -10z m733 -198 l-22 -47 -4 45 c-3 30 4 69 20 114 l23 69 3 -67 c2 -52
-2 -76 -20 -114z m366 41 c-14 -23 -35 -29 -29 -9 3 9 7 24 10 33 4 13 8 14
18 4 8 -8 9 -16 1 -28z m-626 -62 c-2 -10 -15 -17 -36 -19 -36 -4 -41 12 -21
65 l11 28 24 -29 c14 -15 24 -36 22 -45z m-273 49 c-3 -5 -13 -10 -21 -10 -8
0 -14 5 -14 10 0 6 9 10 21 10 11 0 17 -4 14 -10z m924 -93 c-10 -37 -39 -52
-39 -20 0 15 40 67 46 60 2 -2 -1 -20 -7 -40z"/>
<path d="M1533 1483 l3 -118 32 -3 c28 -3 31 -1 34 30 l3 33 20 -32 c19 -32
21 -33 87 -33 65 0 68 1 68 24 0 37 14 39 34 5 14 -23 24 -29 52 -29 19 0 34
3 34 6 0 3 -14 25 -31 50 l-30 44 31 40 c32 40 32 40 8 41 -40 2 -49 -2 -74
-29 l-23 -27 -1 58 c0 57 0 57 -30 57 l-30 0 0 -117 0 -118 -30 45 c-16 25
-30 49 -30 54 0 4 12 22 27 40 l26 31 -34 3 c-26 3 -39 -2 -56 -23 l-23 -26 0
55 0 56 -35 0 -35 0 3 -117z"/>
<path d="M973 1543 c-9 -3 -13 -32 -13 -94 l0 -89 35 0 35 0 0 90 c0 50 -4 90
-9 90 -5 0 -15 2 -23 4 -7 3 -19 2 -25 -1z"/>
<path d="M1943 1540 c-19 -8 -43 -38 -43 -54 0 -11 50 -6 70 6 21 13 36 6 25
-11 -3 -6 -18 -11 -33 -11 -52 -1 -83 -47 -57 -86 13 -20 22 -23 90 -22 l75 0
0 65 c0 77 -9 97 -51 112 -37 13 -46 13 -76 1z m55 -122 c-7 -19 -38 -22 -38
-4 0 10 9 16 21 16 12 0 19 -5 17 -12z"/>
<path d="M1370 1310 c0 -5 5 -10 10 -10 6 0 10 5 10 10 0 6 -4 10 -10 10 -5 0
-10 -4 -10 -10z"/>
</g>
</svg>
